<mxfile host="Electron" modified="2024-01-05T13:47:08.859Z" agent="Mozilla/5.0 (Windows NT 10.0; Win64; x64) AppleWebKit/537.36 (KHTML, like Gecko) draw.io/21.7.5 Chrome/114.0.5735.289 Electron/25.8.1 Safari/537.36" etag="XDC73eXgGsca60zBDeBe" version="21.7.5" type="device">
  <diagram name="Page-1" id="oLfsWai1QUcFMRsysa1G">
    <mxGraphModel dx="1369" dy="884" grid="1" gridSize="10" guides="1" tooltips="1" connect="1" arrows="1" fold="1" page="1" pageScale="1" pageWidth="1169" pageHeight="827" math="0" shadow="0">
      <root>
        <mxCell id="0" />
        <mxCell id="1" parent="0" />
        <mxCell id="W72Y5tRwwuWRCIDUbE3Z-75" style="edgeStyle=orthogonalEdgeStyle;rounded=0;orthogonalLoop=1;jettySize=auto;html=1;exitX=1;exitY=0.5;exitDx=0;exitDy=0;entryX=0;entryY=0.5;entryDx=0;entryDy=0;" edge="1" parent="1" source="W72Y5tRwwuWRCIDUbE3Z-1" target="W72Y5tRwwuWRCIDUbE3Z-3">
          <mxGeometry relative="1" as="geometry" />
        </mxCell>
        <mxCell id="W72Y5tRwwuWRCIDUbE3Z-1" value="Program start" style="ellipse;whiteSpace=wrap;html=1;fillColor=#f8cecc;strokeColor=#b85450;fontColor=#000000;rounded=1;" vertex="1" parent="1">
          <mxGeometry x="135" y="20" width="120" height="80" as="geometry" />
        </mxCell>
        <mxCell id="W72Y5tRwwuWRCIDUbE3Z-2" value="Program end" style="ellipse;whiteSpace=wrap;html=1;fillColor=#f8cecc;strokeColor=#b85450;fontColor=#000000;rounded=1;" vertex="1" parent="1">
          <mxGeometry x="854" y="652" width="120" height="80" as="geometry" />
        </mxCell>
        <mxCell id="W72Y5tRwwuWRCIDUbE3Z-115" style="edgeStyle=orthogonalEdgeStyle;rounded=0;orthogonalLoop=1;jettySize=auto;html=1;exitX=0.153;exitY=0.983;exitDx=0;exitDy=0;entryX=0.5;entryY=0;entryDx=0;entryDy=0;exitPerimeter=0;" edge="1" parent="1" source="W72Y5tRwwuWRCIDUbE3Z-3" target="W72Y5tRwwuWRCIDUbE3Z-7">
          <mxGeometry relative="1" as="geometry" />
        </mxCell>
        <mxCell id="W72Y5tRwwuWRCIDUbE3Z-3" value="Display intro screen with &lt;br&gt;&quot;Start New Order&quot; button" style="rounded=1;whiteSpace=wrap;html=1;fillColor=#d5e8d4;strokeColor=#82b366;fontColor=#000000;shape=parallelogram;perimeter=parallelogramPerimeter;fixedSize=1;" vertex="1" parent="1">
          <mxGeometry x="335" y="30" width="170" height="60" as="geometry" />
        </mxCell>
        <mxCell id="W72Y5tRwwuWRCIDUbE3Z-107" style="edgeStyle=orthogonalEdgeStyle;rounded=0;orthogonalLoop=1;jettySize=auto;html=1;exitX=0.5;exitY=1;exitDx=0;exitDy=0;entryX=0.5;entryY=0;entryDx=0;entryDy=0;" edge="1" parent="1" source="W72Y5tRwwuWRCIDUbE3Z-7" target="W72Y5tRwwuWRCIDUbE3Z-9">
          <mxGeometry relative="1" as="geometry" />
        </mxCell>
        <mxCell id="W72Y5tRwwuWRCIDUbE3Z-7" value="Start New order &lt;br&gt;Button Clicked" style="shape=parallelogram;perimeter=parallelogramPerimeter;whiteSpace=wrap;html=1;fixedSize=1;rounded=1;fillColor=#eeeeee;strokeColor=#36393d;" vertex="1" parent="1">
          <mxGeometry x="286" y="140" width="150" height="60" as="geometry" />
        </mxCell>
        <mxCell id="W72Y5tRwwuWRCIDUbE3Z-83" style="edgeStyle=orthogonalEdgeStyle;rounded=0;orthogonalLoop=1;jettySize=auto;html=1;exitX=0;exitY=0.25;exitDx=0;exitDy=0;entryX=1;entryY=0.5;entryDx=0;entryDy=0;" edge="1" parent="1" source="W72Y5tRwwuWRCIDUbE3Z-9" target="W72Y5tRwwuWRCIDUbE3Z-14">
          <mxGeometry relative="1" as="geometry" />
        </mxCell>
        <mxCell id="W72Y5tRwwuWRCIDUbE3Z-87" style="edgeStyle=orthogonalEdgeStyle;rounded=0;orthogonalLoop=1;jettySize=auto;html=1;exitX=0.25;exitY=1;exitDx=0;exitDy=0;entryX=0.5;entryY=0;entryDx=0;entryDy=0;" edge="1" parent="1" source="W72Y5tRwwuWRCIDUbE3Z-9" target="W72Y5tRwwuWRCIDUbE3Z-29">
          <mxGeometry relative="1" as="geometry">
            <Array as="points">
              <mxPoint x="548" y="350" />
              <mxPoint x="445" y="350" />
            </Array>
          </mxGeometry>
        </mxCell>
        <mxCell id="W72Y5tRwwuWRCIDUbE3Z-97" style="edgeStyle=orthogonalEdgeStyle;rounded=0;orthogonalLoop=1;jettySize=auto;html=1;exitX=1;exitY=0.75;exitDx=0;exitDy=0;entryX=0.5;entryY=0;entryDx=0;entryDy=0;" edge="1" parent="1" source="W72Y5tRwwuWRCIDUbE3Z-9" target="W72Y5tRwwuWRCIDUbE3Z-55">
          <mxGeometry relative="1" as="geometry">
            <Array as="points">
              <mxPoint x="715" y="315" />
            </Array>
          </mxGeometry>
        </mxCell>
        <mxCell id="W72Y5tRwwuWRCIDUbE3Z-118" style="edgeStyle=orthogonalEdgeStyle;rounded=0;orthogonalLoop=1;jettySize=auto;html=1;exitX=0.75;exitY=0;exitDx=0;exitDy=0;entryX=0.5;entryY=1;entryDx=0;entryDy=0;" edge="1" parent="1" source="W72Y5tRwwuWRCIDUbE3Z-9" target="W72Y5tRwwuWRCIDUbE3Z-56">
          <mxGeometry relative="1" as="geometry" />
        </mxCell>
        <mxCell id="W72Y5tRwwuWRCIDUbE3Z-9" value="Display the &lt;br&gt;menu interface" style="rounded=1;whiteSpace=wrap;html=1;fillColor=#d5e8d4;strokeColor=#82b366;fontColor=#000000;shape=parallelogram;perimeter=parallelogramPerimeter;fixedSize=1;" vertex="1" parent="1">
          <mxGeometry x="505" y="272" width="170" height="60" as="geometry" />
        </mxCell>
        <mxCell id="W72Y5tRwwuWRCIDUbE3Z-20" style="edgeStyle=orthogonalEdgeStyle;rounded=0;orthogonalLoop=1;jettySize=auto;html=1;exitX=0.5;exitY=1;exitDx=0;exitDy=0;entryX=0.5;entryY=0;entryDx=0;entryDy=0;" edge="1" parent="1" source="W72Y5tRwwuWRCIDUbE3Z-14" target="W72Y5tRwwuWRCIDUbE3Z-16">
          <mxGeometry relative="1" as="geometry" />
        </mxCell>
        <mxCell id="W72Y5tRwwuWRCIDUbE3Z-14" value="Menu Item Clicked" style="shape=parallelogram;perimeter=parallelogramPerimeter;whiteSpace=wrap;html=1;fixedSize=1;rounded=1;fillColor=#eeeeee;strokeColor=#36393d;" vertex="1" parent="1">
          <mxGeometry x="120" y="259" width="150" height="60" as="geometry" />
        </mxCell>
        <mxCell id="W72Y5tRwwuWRCIDUbE3Z-18" style="edgeStyle=orthogonalEdgeStyle;rounded=0;orthogonalLoop=1;jettySize=auto;html=1;exitX=0.5;exitY=1;exitDx=0;exitDy=0;entryX=0.5;entryY=0;entryDx=0;entryDy=0;" edge="1" parent="1" source="W72Y5tRwwuWRCIDUbE3Z-16" target="W72Y5tRwwuWRCIDUbE3Z-17">
          <mxGeometry relative="1" as="geometry" />
        </mxCell>
        <mxCell id="W72Y5tRwwuWRCIDUbE3Z-16" value="Display Add Item Dialog" style="rounded=1;whiteSpace=wrap;html=1;fillColor=#d5e8d4;strokeColor=#82b366;fontColor=#000000;shape=parallelogram;perimeter=parallelogramPerimeter;fixedSize=1;" vertex="1" parent="1">
          <mxGeometry x="110" y="372" width="170" height="60" as="geometry" />
        </mxCell>
        <mxCell id="W72Y5tRwwuWRCIDUbE3Z-23" style="edgeStyle=orthogonalEdgeStyle;rounded=0;orthogonalLoop=1;jettySize=auto;html=1;exitX=0.5;exitY=1;exitDx=0;exitDy=0;entryX=0.5;entryY=0;entryDx=0;entryDy=0;" edge="1" parent="1" source="W72Y5tRwwuWRCIDUbE3Z-17" target="W72Y5tRwwuWRCIDUbE3Z-22">
          <mxGeometry relative="1" as="geometry" />
        </mxCell>
        <mxCell id="W72Y5tRwwuWRCIDUbE3Z-84" style="edgeStyle=orthogonalEdgeStyle;rounded=0;orthogonalLoop=1;jettySize=auto;html=1;exitX=1;exitY=0.5;exitDx=0;exitDy=0;entryX=0;entryY=0.75;entryDx=0;entryDy=0;" edge="1" parent="1" source="W72Y5tRwwuWRCIDUbE3Z-17" target="W72Y5tRwwuWRCIDUbE3Z-9">
          <mxGeometry relative="1" as="geometry">
            <Array as="points">
              <mxPoint x="330" y="512" />
              <mxPoint x="330" y="316" />
            </Array>
          </mxGeometry>
        </mxCell>
        <mxCell id="W72Y5tRwwuWRCIDUbE3Z-86" value="No" style="edgeLabel;html=1;align=center;verticalAlign=middle;resizable=0;points=[];" vertex="1" connectable="0" parent="W72Y5tRwwuWRCIDUbE3Z-84">
          <mxGeometry x="-0.8955" relative="1" as="geometry">
            <mxPoint y="-10" as="offset" />
          </mxGeometry>
        </mxCell>
        <mxCell id="W72Y5tRwwuWRCIDUbE3Z-17" value="Add item to order?" style="rhombus;whiteSpace=wrap;html=1;fillColor=#ffe6cc;strokeColor=#d79b00;fontColor=#000000;rounded=1;" vertex="1" parent="1">
          <mxGeometry x="105" y="472" width="180" height="80" as="geometry" />
        </mxCell>
        <mxCell id="W72Y5tRwwuWRCIDUbE3Z-85" style="edgeStyle=orthogonalEdgeStyle;rounded=0;orthogonalLoop=1;jettySize=auto;html=1;exitX=1;exitY=0.5;exitDx=0;exitDy=0;entryX=0;entryY=0.75;entryDx=0;entryDy=0;" edge="1" parent="1" source="W72Y5tRwwuWRCIDUbE3Z-22" target="W72Y5tRwwuWRCIDUbE3Z-9">
          <mxGeometry relative="1" as="geometry">
            <Array as="points">
              <mxPoint x="330" y="662" />
              <mxPoint x="330" y="316" />
            </Array>
          </mxGeometry>
        </mxCell>
        <mxCell id="W72Y5tRwwuWRCIDUbE3Z-22" value="Add item to order" style="rounded=1;whiteSpace=wrap;html=1;fillColor=#dae8fc;strokeColor=#6c8ebf;" vertex="1" parent="1">
          <mxGeometry x="110" y="622" width="170" height="60" as="geometry" />
        </mxCell>
        <mxCell id="W72Y5tRwwuWRCIDUbE3Z-28" value="Yes" style="text;html=1;align=center;verticalAlign=middle;resizable=0;points=[];autosize=1;strokeColor=none;fillColor=none;" vertex="1" parent="1">
          <mxGeometry x="189" y="572" width="40" height="30" as="geometry" />
        </mxCell>
        <mxCell id="W72Y5tRwwuWRCIDUbE3Z-44" style="edgeStyle=orthogonalEdgeStyle;rounded=0;orthogonalLoop=1;jettySize=auto;html=1;exitX=0.5;exitY=1;exitDx=0;exitDy=0;entryX=0.5;entryY=0;entryDx=0;entryDy=0;" edge="1" parent="1" source="W72Y5tRwwuWRCIDUbE3Z-29" target="W72Y5tRwwuWRCIDUbE3Z-32">
          <mxGeometry relative="1" as="geometry" />
        </mxCell>
        <mxCell id="W72Y5tRwwuWRCIDUbE3Z-29" value="Order Item Clicked" style="shape=parallelogram;perimeter=parallelogramPerimeter;whiteSpace=wrap;html=1;fixedSize=1;rounded=1;fillColor=#eeeeee;strokeColor=#36393d;" vertex="1" parent="1">
          <mxGeometry x="370" y="366" width="150" height="60" as="geometry" />
        </mxCell>
        <mxCell id="W72Y5tRwwuWRCIDUbE3Z-37" style="edgeStyle=orthogonalEdgeStyle;rounded=0;orthogonalLoop=1;jettySize=auto;html=1;exitX=0.5;exitY=1;exitDx=0;exitDy=0;" edge="1" parent="1" source="W72Y5tRwwuWRCIDUbE3Z-32" target="W72Y5tRwwuWRCIDUbE3Z-33">
          <mxGeometry relative="1" as="geometry" />
        </mxCell>
        <mxCell id="W72Y5tRwwuWRCIDUbE3Z-32" value="Display edit Item Dialog" style="rounded=1;whiteSpace=wrap;html=1;fillColor=#d5e8d4;strokeColor=#82b366;fontColor=#000000;shape=parallelogram;perimeter=parallelogramPerimeter;fixedSize=1;" vertex="1" parent="1">
          <mxGeometry x="360" y="458" width="170" height="60" as="geometry" />
        </mxCell>
        <mxCell id="W72Y5tRwwuWRCIDUbE3Z-35" style="edgeStyle=orthogonalEdgeStyle;rounded=0;orthogonalLoop=1;jettySize=auto;html=1;exitX=0.5;exitY=1;exitDx=0;exitDy=0;entryX=0.5;entryY=0;entryDx=0;entryDy=0;" edge="1" parent="1" source="W72Y5tRwwuWRCIDUbE3Z-33" target="W72Y5tRwwuWRCIDUbE3Z-34">
          <mxGeometry relative="1" as="geometry" />
        </mxCell>
        <mxCell id="W72Y5tRwwuWRCIDUbE3Z-36" value="No" style="edgeLabel;html=1;align=center;verticalAlign=middle;resizable=0;points=[];" vertex="1" connectable="0" parent="W72Y5tRwwuWRCIDUbE3Z-35">
          <mxGeometry x="-0.0714" relative="1" as="geometry">
            <mxPoint x="9" as="offset" />
          </mxGeometry>
        </mxCell>
        <mxCell id="W72Y5tRwwuWRCIDUbE3Z-39" style="edgeStyle=orthogonalEdgeStyle;rounded=0;orthogonalLoop=1;jettySize=auto;html=1;exitX=1;exitY=0.5;exitDx=0;exitDy=0;entryX=0;entryY=0.5;entryDx=0;entryDy=0;" edge="1" parent="1" source="W72Y5tRwwuWRCIDUbE3Z-33" target="W72Y5tRwwuWRCIDUbE3Z-38">
          <mxGeometry relative="1" as="geometry" />
        </mxCell>
        <mxCell id="W72Y5tRwwuWRCIDUbE3Z-40" value="Yes" style="edgeLabel;html=1;align=center;verticalAlign=middle;resizable=0;points=[];" vertex="1" connectable="0" parent="W72Y5tRwwuWRCIDUbE3Z-39">
          <mxGeometry x="-0.2615" y="1" relative="1" as="geometry">
            <mxPoint y="-9" as="offset" />
          </mxGeometry>
        </mxCell>
        <mxCell id="W72Y5tRwwuWRCIDUbE3Z-33" value="Remove item from order?" style="rhombus;whiteSpace=wrap;html=1;fillColor=#ffe6cc;strokeColor=#d79b00;fontColor=#000000;rounded=1;" vertex="1" parent="1">
          <mxGeometry x="355" y="542" width="180" height="80" as="geometry" />
        </mxCell>
        <mxCell id="W72Y5tRwwuWRCIDUbE3Z-42" style="edgeStyle=orthogonalEdgeStyle;rounded=0;orthogonalLoop=1;jettySize=auto;html=1;exitX=1;exitY=0.5;exitDx=0;exitDy=0;entryX=0;entryY=0.5;entryDx=0;entryDy=0;" edge="1" parent="1" source="W72Y5tRwwuWRCIDUbE3Z-34" target="W72Y5tRwwuWRCIDUbE3Z-41">
          <mxGeometry relative="1" as="geometry" />
        </mxCell>
        <mxCell id="W72Y5tRwwuWRCIDUbE3Z-43" value="Yes" style="edgeLabel;html=1;align=center;verticalAlign=middle;resizable=0;points=[];" vertex="1" connectable="0" parent="W72Y5tRwwuWRCIDUbE3Z-42">
          <mxGeometry x="-0.3231" y="2" relative="1" as="geometry">
            <mxPoint x="3" y="-6" as="offset" />
          </mxGeometry>
        </mxCell>
        <mxCell id="W72Y5tRwwuWRCIDUbE3Z-34" value="Upodate order item?" style="rhombus;whiteSpace=wrap;html=1;fillColor=#ffe6cc;strokeColor=#d79b00;fontColor=#000000;rounded=1;" vertex="1" parent="1">
          <mxGeometry x="355" y="652" width="180" height="80" as="geometry" />
        </mxCell>
        <mxCell id="W72Y5tRwwuWRCIDUbE3Z-88" style="edgeStyle=orthogonalEdgeStyle;rounded=0;orthogonalLoop=1;jettySize=auto;html=1;exitX=1;exitY=0.5;exitDx=0;exitDy=0;" edge="1" parent="1" source="W72Y5tRwwuWRCIDUbE3Z-38" target="W72Y5tRwwuWRCIDUbE3Z-9">
          <mxGeometry relative="1" as="geometry">
            <Array as="points">
              <mxPoint x="790" y="582" />
              <mxPoint x="790" y="440" />
              <mxPoint x="590" y="440" />
            </Array>
          </mxGeometry>
        </mxCell>
        <mxCell id="W72Y5tRwwuWRCIDUbE3Z-38" value="Remove item from order" style="rounded=1;whiteSpace=wrap;html=1;fillColor=#dae8fc;strokeColor=#6c8ebf;" vertex="1" parent="1">
          <mxGeometry x="600" y="552" width="170" height="60" as="geometry" />
        </mxCell>
        <mxCell id="W72Y5tRwwuWRCIDUbE3Z-103" style="edgeStyle=orthogonalEdgeStyle;rounded=0;orthogonalLoop=1;jettySize=auto;html=1;exitX=1;exitY=0.5;exitDx=0;exitDy=0;entryX=0.5;entryY=1;entryDx=0;entryDy=0;" edge="1" parent="1" source="W72Y5tRwwuWRCIDUbE3Z-41" target="W72Y5tRwwuWRCIDUbE3Z-9">
          <mxGeometry relative="1" as="geometry">
            <Array as="points">
              <mxPoint x="770" y="690" />
              <mxPoint x="790" y="690" />
              <mxPoint x="790" y="440" />
              <mxPoint x="590" y="440" />
            </Array>
          </mxGeometry>
        </mxCell>
        <mxCell id="W72Y5tRwwuWRCIDUbE3Z-41" value="Update order item" style="rounded=1;whiteSpace=wrap;html=1;fillColor=#dae8fc;strokeColor=#6c8ebf;" vertex="1" parent="1">
          <mxGeometry x="600" y="662" width="170" height="60" as="geometry" />
        </mxCell>
        <mxCell id="W72Y5tRwwuWRCIDUbE3Z-93" style="edgeStyle=orthogonalEdgeStyle;rounded=0;orthogonalLoop=1;jettySize=auto;html=1;exitX=1;exitY=0.5;exitDx=0;exitDy=0;" edge="1" parent="1" source="W72Y5tRwwuWRCIDUbE3Z-55" target="W72Y5tRwwuWRCIDUbE3Z-63">
          <mxGeometry relative="1" as="geometry" />
        </mxCell>
        <mxCell id="W72Y5tRwwuWRCIDUbE3Z-55" value="Checkout Button &lt;br&gt;Clicked" style="shape=parallelogram;perimeter=parallelogramPerimeter;whiteSpace=wrap;html=1;fixedSize=1;rounded=1;fillColor=#eeeeee;strokeColor=#36393d;" vertex="1" parent="1">
          <mxGeometry x="640" y="362" width="150" height="60" as="geometry" />
        </mxCell>
        <mxCell id="W72Y5tRwwuWRCIDUbE3Z-117" style="edgeStyle=orthogonalEdgeStyle;rounded=0;orthogonalLoop=1;jettySize=auto;html=1;exitX=0;exitY=0.5;exitDx=0;exitDy=0;entryX=0.75;entryY=1;entryDx=0;entryDy=0;" edge="1" parent="1" source="W72Y5tRwwuWRCIDUbE3Z-56" target="W72Y5tRwwuWRCIDUbE3Z-3">
          <mxGeometry relative="1" as="geometry">
            <Array as="points">
              <mxPoint x="463" y="170" />
              <mxPoint x="463" y="160" />
            </Array>
          </mxGeometry>
        </mxCell>
        <mxCell id="W72Y5tRwwuWRCIDUbE3Z-56" value="Cancel Button Clicked" style="shape=parallelogram;perimeter=parallelogramPerimeter;whiteSpace=wrap;html=1;fixedSize=1;rounded=1;fillColor=#eeeeee;strokeColor=#36393d;" vertex="1" parent="1">
          <mxGeometry x="558" y="140" width="150" height="60" as="geometry" />
        </mxCell>
        <mxCell id="W72Y5tRwwuWRCIDUbE3Z-110" style="edgeStyle=orthogonalEdgeStyle;rounded=0;orthogonalLoop=1;jettySize=auto;html=1;exitX=0.46;exitY=0.983;exitDx=0;exitDy=0;exitPerimeter=0;" edge="1" parent="1" source="W72Y5tRwwuWRCIDUbE3Z-60" target="W72Y5tRwwuWRCIDUbE3Z-2">
          <mxGeometry relative="1" as="geometry" />
        </mxCell>
        <mxCell id="W72Y5tRwwuWRCIDUbE3Z-60" value="Window Closed" style="shape=parallelogram;perimeter=parallelogramPerimeter;whiteSpace=wrap;html=1;fixedSize=1;rounded=1;fillColor=#eeeeee;strokeColor=#36393d;" vertex="1" parent="1">
          <mxGeometry x="845" y="512" width="150" height="60" as="geometry" />
        </mxCell>
        <mxCell id="W72Y5tRwwuWRCIDUbE3Z-94" style="edgeStyle=orthogonalEdgeStyle;rounded=0;orthogonalLoop=1;jettySize=auto;html=1;exitX=0.5;exitY=0;exitDx=0;exitDy=0;entryX=0.5;entryY=1;entryDx=0;entryDy=0;" edge="1" parent="1" source="W72Y5tRwwuWRCIDUbE3Z-63" target="W72Y5tRwwuWRCIDUbE3Z-68">
          <mxGeometry relative="1" as="geometry" />
        </mxCell>
        <mxCell id="W72Y5tRwwuWRCIDUbE3Z-63" value="Display the checkout" style="rounded=1;whiteSpace=wrap;html=1;fillColor=#d5e8d4;strokeColor=#82b366;fontColor=#000000;shape=parallelogram;perimeter=parallelogramPerimeter;fixedSize=1;" vertex="1" parent="1">
          <mxGeometry x="825" y="362" width="170" height="60" as="geometry" />
        </mxCell>
        <mxCell id="W72Y5tRwwuWRCIDUbE3Z-112" style="edgeStyle=orthogonalEdgeStyle;rounded=0;orthogonalLoop=1;jettySize=auto;html=1;exitX=0;exitY=0.5;exitDx=0;exitDy=0;entryX=1;entryY=0.5;entryDx=0;entryDy=0;" edge="1" parent="1" source="W72Y5tRwwuWRCIDUbE3Z-64" target="W72Y5tRwwuWRCIDUbE3Z-3">
          <mxGeometry relative="1" as="geometry" />
        </mxCell>
        <mxCell id="W72Y5tRwwuWRCIDUbE3Z-64" value="Print the receipt" style="rounded=1;whiteSpace=wrap;html=1;fillColor=#dae8fc;strokeColor=#6c8ebf;" vertex="1" parent="1">
          <mxGeometry x="825" y="30" width="170" height="60" as="geometry" />
        </mxCell>
        <mxCell id="W72Y5tRwwuWRCIDUbE3Z-99" style="edgeStyle=orthogonalEdgeStyle;rounded=0;orthogonalLoop=1;jettySize=auto;html=1;exitX=0;exitY=0.5;exitDx=0;exitDy=0;entryX=1;entryY=0.25;entryDx=0;entryDy=0;" edge="1" parent="1" source="W72Y5tRwwuWRCIDUbE3Z-68" target="W72Y5tRwwuWRCIDUbE3Z-9">
          <mxGeometry relative="1" as="geometry">
            <Array as="points">
              <mxPoint x="740" y="252" />
              <mxPoint x="740" y="288" />
            </Array>
          </mxGeometry>
        </mxCell>
        <mxCell id="W72Y5tRwwuWRCIDUbE3Z-100" value="No" style="edgeLabel;html=1;align=center;verticalAlign=middle;resizable=0;points=[];" vertex="1" connectable="0" parent="W72Y5tRwwuWRCIDUbE3Z-99">
          <mxGeometry x="-0.8209" y="-3" relative="1" as="geometry">
            <mxPoint y="-7" as="offset" />
          </mxGeometry>
        </mxCell>
        <mxCell id="W72Y5tRwwuWRCIDUbE3Z-101" style="edgeStyle=orthogonalEdgeStyle;rounded=0;orthogonalLoop=1;jettySize=auto;html=1;exitX=0.5;exitY=0;exitDx=0;exitDy=0;entryX=0.5;entryY=1;entryDx=0;entryDy=0;" edge="1" parent="1" source="W72Y5tRwwuWRCIDUbE3Z-68" target="W72Y5tRwwuWRCIDUbE3Z-64">
          <mxGeometry relative="1" as="geometry" />
        </mxCell>
        <mxCell id="W72Y5tRwwuWRCIDUbE3Z-102" value="Yes" style="edgeLabel;html=1;align=center;verticalAlign=middle;resizable=0;points=[];" vertex="1" connectable="0" parent="W72Y5tRwwuWRCIDUbE3Z-101">
          <mxGeometry x="-0.775" y="1" relative="1" as="geometry">
            <mxPoint as="offset" />
          </mxGeometry>
        </mxCell>
        <mxCell id="W72Y5tRwwuWRCIDUbE3Z-68" value="Confirm order?" style="rhombus;whiteSpace=wrap;html=1;fillColor=#ffe6cc;strokeColor=#d79b00;fontColor=#000000;rounded=1;" vertex="1" parent="1">
          <mxGeometry x="820" y="212" width="180" height="80" as="geometry" />
        </mxCell>
      </root>
    </mxGraphModel>
  </diagram>
</mxfile>
